<svg width="48" height="44" viewBox="0 0 48 44" fill="none" xmlns="http://www.w3.org/2000/svg">
<g clip-path="url(#clip0_505_3536)">
<path d="M33.1571 18.9014L33.6695 19.2954V41.3027C33.6695 43.5321 31.1327 44.7963 29.3722 43.4445L22.8341 38.4208L11.9987 30.0963L1.16232 21.7718C-0.0455167 20.8442 0.606531 18.9014 2.1259 18.9014H12.9437C14.4672 18.9014 15.9483 19.4048 17.1592 20.3355L20.1545 22.6368C21.2526 23.48 22.8351 22.6921 22.8351 21.3007V11.7379C22.8351 9.66802 24.5015 7.98998 26.557 7.98998H34.4695C35.992 7.98998 37.4731 8.49339 38.684 9.42413L47.3904 16.1133C48.5641 17.0149 47.9307 18.9024 46.4548 18.9024H33.1571V18.9014Z" fill="#c14b2e"/>
<path d="M13.9473 14.0454C17.1379 10.8323 17.1379 5.62297 13.9473 2.40992C10.7566 -0.80312 5.58356 -0.80312 2.39291 2.40992C-0.797742 5.62297 -0.797742 10.8323 2.39291 14.0454C5.58356 17.2584 10.7566 17.2584 13.9473 14.0454Z" fill="#d0e3d3"/>
</g>
<defs>
<clipPath id="clip0_505_3536">
<rect width="48" height="44" fill="white"/>
</clipPath>
</defs>
</svg>
