<svg width="48" height="48" viewBox="0 0 48 48" fill="none" xmlns="http://www.w3.org/2000/svg">
<path d="M22 5.07026C20.8234 4.38958 19.4571 4 18 4C13.5817 4 10 7.58172 10 12V15.5484C8.2979 16.2329 6.90286 17.2957 5.88252 18.6987C4.58478 20.483 4 22.6694 4 25C4 28.1228 5.59058 30.8712 8 32.484V35C8 39.9706 12.0294 44 17 44C18.8501 44 20.57 43.4418 22 42.4844V35C22 32.334 21.34 30.6294 20.2804 29.4816C19.1949 28.3056 17.4324 27.433 14.6712 26.9728L15.3288 23.0272C17.932 23.461 20.2116 24.2746 22 25.6542V5.07026ZM26 5.07026V25.6542C27.7884 24.2746 30.068 23.461 32.6712 23.0272L33.3288 26.9728C30.5676 27.433 28.8052 28.3056 27.7196 29.4816C26.66 30.6294 26 32.334 26 35V42.4844C27.43 43.4418 29.1498 44 31 44C35.9706 44 40 39.9706 40 35V32.484C42.4094 30.8712 44 28.1228 44 25C44 22.6694 43.4152 20.483 42.1174 18.6987C41.0972 17.2957 39.7022 16.2329 38 15.5484V12C38 7.58172 34.4182 4 30 4C28.5428 4 27.1766 4.38958 26 5.07026Z" fill="#c14b2e"/>
</svg>
